# xmcd CD database file
#
# Track frame offsets:
#	150
#	15976
#	47377
#	69919
#	99682
#	122056
#	152286
#	174215
#
# Disc length: 2832 seconds
#
# Revision: 0
# Processed by: cddbd v1.5.2PL0 Copyright (c) Steve Scherf et al.
# Submitted via: CDex 1.51
#
DISCID=4d0b0e08
DTITLE=F. Bidoyen - T.Plantadis - Spiritus Mundi
DYEAR=1900
DGENRE=New Age
TTITLE0=Terre des âmes (remix)
TTITLE1=Opéra dream
TTITLE2=Astre des Anges
TTITLE3=Pensées d'Asie
TTITLE4=Voyage en solitaire
TTITLE5=Terre des âmes
TTITLE6=Harpe magique
TTITLE7=Voix de Bankkok
EXTD=
EXTT0=
EXTT1=
EXTT2=
EXTT3=
EXTT4=
EXTT5=
EXTT6=
EXTT7=
PLAYORDER=
